<svg width="270" height="94" viewBox="0 0 270 94" fill="none" xmlns="http://www.w3.org/2000/svg">
<path d="M110.768 59.1435C108.883 58.7923 107.606 57.8853 106.939 56.4224C106.285 54.962 106.18 53.0413 106.623 50.6602C107.064 48.2929 107.852 46.5457 108.988 45.4186C110.14 44.2802 111.659 43.8866 113.544 44.2378C114.26 44.3711 114.868 44.584 115.369 44.8767C115.884 45.1719 116.309 45.5287 116.644 45.9471C116.981 46.3518 117.236 46.8193 117.408 47.3498C117.582 47.8664 117.692 48.421 117.739 49.0135L115.131 49.254C115.096 48.9058 115.043 48.5756 114.973 48.2635C114.903 47.9514 114.791 47.6742 114.637 47.4318C114.499 47.1783 114.303 46.9708 114.048 46.8095C113.796 46.6343 113.477 46.5109 113.092 46.4391C112.156 46.2648 111.415 46.4971 110.868 47.1359C110.336 47.7772 109.954 48.7173 109.724 49.956L109.262 52.4334C109.032 53.6721 109.049 54.6864 109.315 55.4765C109.595 56.269 110.202 56.7525 111.138 56.9268C111.524 56.9986 111.864 57.005 112.16 56.9462C112.458 56.8736 112.716 56.7507 112.934 56.5776C113.167 56.3932 113.373 56.1681 113.551 55.9021C113.728 55.6362 113.896 55.347 114.054 55.0346L116.401 56.1979C116.144 56.734 115.84 57.2186 115.489 57.6516C115.141 58.0709 114.735 58.4154 114.271 58.6851C113.811 58.9411 113.287 59.1142 112.701 59.2043C112.128 59.2971 111.484 59.2768 110.768 59.1435ZM118.565 58.1817L121.207 58.6738L122.415 52.1913L119.772 51.6992L120.161 49.614L125.446 50.5983L124.904 53.5092L125.069 53.54C125.234 53.1863 125.432 52.8528 125.661 52.5395C125.906 52.215 126.184 51.9463 126.495 51.7335C126.821 51.5095 127.192 51.3508 127.609 51.2574C128.025 51.164 128.501 51.1673 129.038 51.2673L130.194 51.4826L129.733 53.96L127.544 53.5525C126.746 53.4038 126.076 53.5211 125.535 53.9045C124.993 54.2879 124.655 54.8443 124.519 55.5737L123.85 59.166L127.546 59.8542L127.157 61.9394L118.177 60.2669L118.565 58.1817ZM135.402 63.7312C134.549 63.5723 133.816 63.3006 133.204 62.916C132.592 62.5315 132.104 62.0561 131.74 61.4898C131.389 60.926 131.159 60.2852 131.051 59.5672C130.945 58.8354 130.972 58.0429 131.131 57.1896C131.292 56.3225 131.554 55.5666 131.916 54.9221C132.292 54.28 132.745 53.7592 133.275 53.3595C133.805 52.9598 134.404 52.6868 135.073 52.5407C135.754 52.3971 136.488 52.3983 137.272 52.5444C138.043 52.688 138.713 52.9482 139.284 53.325C139.857 53.6881 140.314 54.1434 140.653 54.6908C141.007 55.2408 141.239 55.8679 141.35 56.5721C141.461 57.2763 141.442 58.0275 141.293 58.8258L141.131 59.6929L133.658 58.3011L133.608 58.5695C133.464 59.3402 133.589 60.0113 133.981 60.5827C134.375 61.1404 135.006 61.5 135.873 61.6614C136.534 61.7845 137.122 61.7588 137.639 61.5845C138.172 61.3989 138.638 61.1154 139.036 60.7339L140.263 62.5217C139.772 63.0142 139.118 63.3908 138.301 63.6516C137.497 63.9148 136.531 63.9414 135.402 63.7312ZM136.931 54.4889C136.188 54.3505 135.546 54.473 135.004 54.8564C134.463 55.2397 134.121 55.8168 133.977 56.5875L133.95 56.732L138.781 57.6317L138.816 57.4459C138.959 56.6752 138.86 56.023 138.518 55.4893C138.19 54.9582 137.661 54.6248 136.931 54.4889ZM151.502 66.4732C150.855 66.3528 150.382 66.1009 150.084 65.7177C149.801 65.3233 149.679 64.8307 149.718 64.2398L149.615 64.2206C149.299 64.8454 148.824 65.291 148.191 65.5575C147.56 65.8103 146.832 65.8597 146.006 65.706C144.932 65.506 144.131 65.065 143.603 64.3827C143.075 63.7005 142.905 62.8571 143.092 61.8524C143.492 59.7053 145.268 58.9252 148.42 59.5122L150.298 59.8621L150.429 59.1601C150.555 58.4857 150.484 57.9457 150.218 57.5401C149.952 57.1345 149.447 56.8625 148.704 56.7241C148.029 56.5985 147.461 56.628 147 56.8126C146.538 56.9972 146.124 57.2691 145.759 57.6281L144.49 56.0675C144.93 55.5372 145.553 55.1404 146.356 54.8771C147.176 54.6026 148.171 54.5743 149.341 54.7922C150.745 55.0536 151.778 55.5877 152.439 56.3945C153.117 57.19 153.336 58.2347 153.095 59.5284L152.16 64.5451L153.42 64.7797L153.051 66.7616L151.502 66.4732ZM147.232 64.0545C147.865 64.1724 148.415 64.1253 148.882 63.9132C149.365 63.6898 149.654 63.3236 149.748 62.8143L150.014 61.3898L148.197 61.0515C146.752 60.7823 145.945 61.1019 145.775 62.0103L145.699 62.4232C145.619 62.8499 145.717 63.2028 145.993 63.482C146.268 63.7611 146.681 63.952 147.232 64.0545ZM160.681 68.1827C159.663 67.993 158.963 67.5849 158.581 66.9584C158.199 66.332 158.088 65.5921 158.247 64.7387L159.304 59.0613L156.207 58.4846L156.595 56.3995L158.701 56.7916C159.128 56.8711 159.446 56.8449 159.656 56.7131C159.868 56.5675 160.015 56.2745 160.097 55.834L160.578 53.2534L163.035 53.7109L162.335 57.4683L166.67 58.2757L166.282 60.3609L161.946 59.5535L160.739 66.036L165.075 66.8434L164.686 68.9286L160.681 68.1827ZM172.539 70.6474C171.686 70.4885 170.953 70.2167 170.341 69.8322C169.729 69.4477 169.241 68.9722 168.877 68.4059C168.526 67.8422 168.296 67.2013 168.188 66.4834C168.082 65.7516 168.109 64.9591 168.268 64.1058C168.429 63.2387 168.691 62.4828 169.053 61.8382C169.429 61.1962 169.882 60.6753 170.412 60.2756C170.942 59.876 171.541 59.603 172.209 59.4569C172.891 59.3133 173.624 59.3145 174.409 59.4606C175.18 59.6042 175.85 59.8644 176.421 60.2412C176.994 60.6043 177.451 61.0595 177.79 61.607C178.143 62.1569 178.375 62.784 178.486 63.4882C178.597 64.1925 178.579 64.9437 178.43 65.742L178.268 66.6091L170.795 65.2172L170.745 65.4856C170.601 66.2564 170.726 66.9275 171.118 67.4989C171.512 68.0566 172.143 68.4161 173.01 68.5776C173.671 68.7007 174.259 68.675 174.776 68.5006C175.309 68.3151 175.775 68.0316 176.173 67.6501L177.4 69.4379C176.909 69.9304 176.255 70.307 175.438 70.5677C174.634 70.831 173.668 70.8576 172.539 70.6474ZM174.068 61.4051C173.325 61.2667 172.683 61.3892 172.141 61.7725C171.6 62.1559 171.258 62.733 171.114 63.5037L171.087 63.6482L175.918 64.5479L175.953 64.3621C176.096 63.5914 175.997 62.9392 175.655 62.4055C175.326 61.8744 174.798 61.541 174.068 61.4051ZM201.018 75.6948C200.371 75.5743 199.898 75.3225 199.599 74.9393C199.317 74.5449 199.195 74.0523 199.234 73.4614L199.131 73.4422C198.815 74.0669 198.34 74.5126 197.707 74.7791C197.076 75.0318 196.347 75.0813 195.522 74.9275C194.448 74.7276 193.647 74.2865 193.119 73.6043C192.591 72.9221 192.421 72.0786 192.608 71.0739C193.008 68.9268 194.784 68.1468 197.935 68.7338L199.814 69.0836L199.945 68.3817C200.07 67.7073 200 67.1673 199.734 66.7617C199.468 66.3561 198.963 66.0841 198.22 65.9457C197.545 65.8201 196.977 65.8496 196.516 66.0342C196.054 66.2188 195.64 66.4906 195.274 66.8497L194.006 65.2891C194.446 64.7587 195.068 64.3619 195.872 64.0987C196.692 63.8242 197.687 63.7959 198.857 64.0137C200.261 64.2752 201.294 64.8093 201.955 65.616C202.633 66.4116 202.851 67.4562 202.61 68.75L201.676 73.7667L202.935 74.0013L202.566 75.9832L201.018 75.6948ZM196.748 73.2761C197.381 73.394 197.931 73.3469 198.397 73.1347C198.88 72.9114 199.169 72.5451 199.264 72.0359L199.53 70.6114L197.713 70.273C196.268 70.0039 195.46 70.3235 195.291 71.2319L195.214 71.6448C195.135 72.0715 195.233 72.4244 195.509 72.7035C195.784 72.9827 196.197 73.1736 196.748 73.2761ZM217.597 76.6249L220.239 77.117L221.446 70.6344L218.804 70.1423L219.192 68.0572L224.477 69.0414L223.935 71.9524L224.1 71.9831C224.266 71.6295 224.463 71.296 224.693 70.9827C224.938 70.6581 225.216 70.3895 225.526 70.1767C225.853 69.9527 226.224 69.794 226.64 69.7006C227.056 69.6072 227.533 69.6105 228.07 69.7104L229.226 69.9257L228.764 72.4032L226.576 71.9956C225.778 71.8469 225.108 71.9643 224.566 72.3477C224.025 72.731 223.687 73.2874 223.551 74.0169L222.882 77.6091L226.577 78.2974L226.189 80.3825L217.208 78.71L217.597 76.6249ZM234.186 82.1282C233.374 81.977 232.669 81.7104 232.071 81.3284C231.486 80.949 231.012 80.4761 230.648 79.9098C230.297 79.3461 230.062 78.6971 229.942 77.9628C229.836 77.231 229.863 76.4385 230.022 75.5852C230.181 74.7318 230.441 73.9829 230.803 73.3383C231.179 72.6963 231.632 72.1754 232.162 71.7757C232.706 71.3786 233.319 71.1082 234.001 70.9646C234.697 70.8236 235.45 70.8287 236.262 70.9799C237.061 71.1286 237.759 71.3939 238.357 71.7759C238.955 72.1578 239.43 72.6307 239.78 73.1944C240.145 73.7607 240.38 74.4098 240.486 75.1415C240.605 75.8758 240.586 76.6696 240.427 77.523C240.268 78.3763 240 79.124 239.625 79.766C239.262 80.4106 238.809 80.9314 238.266 81.3286C237.735 81.7283 237.123 81.9986 236.427 82.1397C235.731 82.2807 234.984 82.2769 234.186 82.1282ZM234.563 80.105C235.32 80.246 235.961 80.1304 236.486 79.7582C237.014 79.3723 237.361 78.732 237.527 77.8374L237.835 76.1858C238.001 75.2912 237.907 74.5758 237.551 74.0395C237.198 73.4896 236.643 73.1441 235.886 73.0031C235.129 72.8621 234.486 72.9846 233.959 73.3705C233.434 73.7427 233.088 74.3761 232.921 75.2707L232.614 76.9223C232.447 77.8169 232.54 78.5392 232.894 79.0892C233.25 79.6254 233.806 79.964 234.563 80.105ZM246.565 84.4336C245.753 84.2824 245.048 84.0158 244.45 83.6338C243.865 83.2544 243.391 82.7815 243.026 82.2152C242.676 81.6515 242.441 81.0025 242.321 80.2682C242.215 79.5364 242.242 78.7439 242.401 77.8906C242.56 77.0372 242.82 76.2883 243.182 75.6437C243.558 75.0016 244.011 74.4808 244.541 74.0811C245.085 73.684 245.698 73.4136 246.38 73.27C247.075 73.129 247.829 73.1341 248.641 73.2853C249.44 73.434 250.138 73.6993 250.736 74.0813C251.334 74.4632 251.809 74.9361 252.159 75.4998C252.524 76.0661 252.759 76.7152 252.865 77.4469C252.984 78.1812 252.965 78.975 252.806 79.8283C252.647 80.6817 252.379 81.4294 252.004 82.0714C251.641 82.716 251.188 83.2368 250.644 83.634C250.114 84.0337 249.501 84.304 248.806 84.4451C248.11 84.5861 247.363 84.5823 246.565 84.4336ZM246.942 82.4104C247.699 82.5514 248.34 82.4358 248.865 82.0636C249.392 81.6777 249.74 81.0374 249.906 80.1428L250.214 78.4912C250.38 77.5966 250.286 76.8812 249.93 76.3449C249.577 75.795 249.022 75.4495 248.265 75.3085C247.508 75.1675 246.865 75.29 246.338 75.6759C245.813 76.0481 245.467 76.6815 245.3 77.5761L244.993 79.2277C244.826 80.1223 244.919 80.8446 245.273 81.3946C245.629 81.9308 246.185 82.2694 246.942 82.4104ZM253.561 85.4801L255.545 74.8272L257.733 75.2348L257.46 76.7006L257.584 76.7237C257.836 76.2865 258.144 75.9309 258.509 75.657C258.889 75.3718 259.362 75.2818 259.926 75.3869C260.463 75.4869 260.86 75.7246 261.118 76.1001C261.378 76.4619 261.504 76.9339 261.495 77.5161L261.598 77.5353C261.867 77.0869 262.205 76.7227 262.613 76.4427C263.038 76.1515 263.573 76.0662 264.22 76.1866C265.005 76.3327 265.517 76.72 265.756 77.3484C265.995 77.9767 266.011 78.8415 265.806 79.9425L264.399 87.4986L262.231 87.0949L263.581 79.8485C263.696 79.2291 263.688 78.7789 263.555 78.4979C263.436 78.2194 263.204 78.0481 262.86 77.984C262.544 77.9251 262.256 77.9783 261.997 78.1437C261.752 78.3117 261.59 78.6091 261.511 79.0357L260.084 86.695L257.896 86.2875L259.246 79.0411C259.361 78.4217 259.359 77.9728 259.24 77.6943C259.121 77.4158 258.889 77.2445 258.545 77.1804C258.215 77.1189 257.921 77.1709 257.662 77.3363C257.417 77.5043 257.255 77.8017 257.175 78.2283L255.749 85.8876L253.561 85.4801Z" fill="white"/>
<path d="M10.9298 0.822929C10.2797 0.309422 9.33644 0.420135 8.82293 1.07021L0.454845 11.6639C-0.0586621 12.3139 0.0520506 13.2572 0.702129 13.7707C1.35221 14.2842 2.29548 14.1735 2.80899 13.5234L10.2473 4.10686L19.6639 11.5452C20.3139 12.0587 21.2572 11.9479 21.7707 11.2979C22.2842 10.6478 22.1735 9.70452 21.5234 9.19101L10.9298 0.822929ZM135.74 87.0228C107.601 91.9812 85.8358 89.082 69.009 82.0382C52.1793 74.9932 40.183 63.7576 31.6562 51.8755C23.123 39.9844 18.0752 27.4591 15.1615 17.8912C13.7058 13.1109 12.7859 9.07907 12.2307 6.24842C11.9532 4.83338 11.767 3.71936 11.6506 2.96306C11.5925 2.58493 11.5518 2.2963 11.5258 2.10427C11.5129 2.00825 11.5036 1.93639 11.4977 1.88957C11.4948 1.86616 11.4927 1.84902 11.4914 1.83824C11.4907 1.83285 11.4902 1.82906 11.49 1.82687C11.4898 1.82578 11.4898 1.82535 11.4897 1.8248C11.4897 1.82477 11.4898 1.82514 10 2C8.51023 2.17486 8.51037 2.17604 8.51055 2.17764C8.51068 2.17871 8.51092 2.18071 8.51118 2.18285C8.51169 2.18714 8.5124 2.19304 8.51331 2.20054C8.51513 2.21554 8.51777 2.23695 8.52126 2.26466C8.52825 2.32006 8.53864 2.40065 8.5528 2.50554C8.58111 2.71529 8.62445 3.02225 8.68554 3.41927C8.8077 4.21325 9.00088 5.36779 9.28683 6.8258C9.85863 9.74125 10.802 13.8735 12.2916 18.7651C15.2686 28.5409 20.4395 41.3906 29.2189 53.6245C38.0046 65.8674 50.4147 77.5068 67.8506 84.8055C85.2896 92.1055 107.65 95.0188 136.261 89.9772L135.74 87.0228Z" fill="white"/>
</svg>
