<svg width="97" height="97" viewBox="0 0 97 97" fill="none" xmlns="http://www.w3.org/2000/svg">
<path d="M4.7568 85.9895L9.67499 77.7318C9.77182 77.5693 10.0107 77.5802 10.0923 77.7509L14.3507 86.6607C15.8781 89.8565 14.6273 93.6886 11.5086 95.3678C10.4936 95.9144 9.28417 95.9665 8.22586 95.5092L7.77319 95.3136C4.16024 93.7525 2.74282 89.371 4.7568 85.9895Z" fill="#000000"/>
<path d="M11.0969 61.5474L49.5275 21.5607C49.9753 21.0948 50.7172 21.08 51.1852 21.5278L65.2614 35.0563C65.7274 35.5041 65.7421 36.2461 65.2943 36.714L48.0359 54.6713C38.6259 64.4623 24.2619 67.8375 11.557 63.4681C10.7487 63.1912 10.5076 62.1646 11.0989 61.5493L11.0969 61.5474Z" fill="#000000"/>
<path d="M91.7804 2.8086C95.7803 6.52642 95.9435 12.7815 92.1753 16.7023L82.9471 26.3042C82.4993 26.7702 81.7573 26.7849 81.2894 26.3371L68.9256 14.4545C68.4596 14.0067 68.4449 13.2647 68.8927 12.7968L78.0099 3.3104C81.7131 -0.542703 87.8661 -0.830837 91.7804 2.80664L91.7804 2.8086Z" fill="#000000"/>
<path d="M13.3237 59.5865C27.018 65.1825 33.1787 62.1322 44.0547 50.8158L52.3369 38.6251C43.5901 37.2497 60.2436 31.2317 64.6301 34.4516L76.2989 45.6639C76.7649 46.1117 76.7796 46.8536 76.3318 47.3216L65.32 58.7793C64.8587 59.2592 64.2315 59.5432 63.566 59.574L57.807 59.8328C55.1119 59.9546 58.0142 62.3973 57.9114 65.0929L54.2574 70.3416C52.9939 71.734 52.316 72.3178 51.8467 72.7822C37.1592 87.3132 16.8327 85.4156 4.6054 76.9681C1.97935 75.1548 1.61407 71.4137 3.82643 69.1137L7.56208 65.2248C7.89316 64.8803 12.9116 59.1923 11.5514 61.618L13.3237 59.5865Z" fill="#000000"/>
<path d="M49.786 8.15314C52.5839 5.24191 57.2094 5.15011 60.1207 7.94805L88.2533 34.9859C91.1646 37.7838 91.2563 42.4093 88.4584 45.3206C85.6605 48.2318 81.0349 48.3236 78.1237 45.5257L49.9911 18.4878C47.0798 15.6899 46.988 11.0644 49.786 8.15314Z" fill="#000000"/>
</svg>
