<svg width="46" height="46" viewBox="0 0 46 46" fill="none" xmlns="http://www.w3.org/2000/svg">
<g filter="url(#filter0_ii_2641_1024)">
<path fill-rule="evenodd" clip-rule="evenodd" d="M11.1613 4.51738C13.03 3.31566 14.8696 2.37483 16.3889 1.82393C17.6878 1.35402 20.3044 0.745733 22.1816 0.468001C24.185 0.173322 26.664 0.0717735 28.1183 0.184894C29.4859 0.3225 31.4798 0.722923 32.5649 1.05265C33.6659 1.40593 35.4422 2.19535 36.5216 2.76997C37.5774 3.3606 39.1201 4.51545 39.9169 5.28219C40.7137 6.04894 41.8392 7.34975 42.3835 8.15039C42.9439 8.97458 43.7877 10.5702 44.2718 11.6873C44.7483 12.844 45.2785 14.6872 45.431 15.8232C45.607 16.9431 45.5466 18.9813 45.3299 20.3338C45.1132 21.6864 44.4933 23.864 43.9601 25.1562C43.3958 26.504 42.4161 28.2031 41.6663 29.1261C40.7291 30.2798 40.016 30.9024 38.0107 31.8526L38.2545 33.4774C38.3732 34.3609 38.3476 35.8933 38.1592 36.8823C37.9707 37.8712 37.3923 39.4008 36.8714 40.3059C36.2412 41.3542 35.3737 42.3573 34.3545 43.1879C33.4766 43.9225 32.2201 44.708 31.378 45.0395C30.6226 45.3465 29.2361 45.7382 28.3451 45.8964C27.4616 46.015 25.819 46.03 24.6802 45.8745C23.4228 45.6964 22.0364 45.2272 21.0202 44.6442C19.8532 43.9914 18.9933 43.2331 18.1146 42.1433C17.2839 41.1241 16.7057 40.071 16.3488 39.0396C15.8544 37.6541 15.7583 37.5128 15.277 37.5646C14.985 37.5909 13.9254 37.4505 12.9835 37.2301C12.0181 37.0256 10.3614 36.3615 9.31312 35.7313C8.26485 35.1011 6.72211 33.9462 5.86976 33.1484C5.03342 32.3741 3.92397 31.0969 3.41163 30.3433C2.91531 29.6133 2.29657 28.4501 2.03759 27.7653C1.75507 27.0965 1.39162 25.3465 1.18074 23.8715C0.861576 21.7814 0.937011 20.525 1.41188 18.0328C1.81892 15.8966 2.36439 14.2173 3.07089 12.8761C3.66905 11.7807 4.65059 10.2869 5.28359 9.54665C5.90057 8.78282 6.83122 7.7713 7.33987 7.2533C7.86453 6.75884 9.57508 5.52697 11.1613 4.51738ZM8.05234 15.2396C7.66236 15.7802 7.21963 16.5977 7.05006 17.0574C6.88049 17.517 6.70807 18.5295 6.65998 19.3197C6.60435 20.1495 6.8049 21.3561 7.15239 22.2217C7.60443 23.2917 8.02917 23.9671 8.76191 24.6396C9.31193 25.1954 10.0993 25.7963 10.5279 26.0215C10.9489 26.2862 11.8992 26.5697 12.6273 26.729C13.3629 26.8486 14.5242 26.8855 15.2024 26.7687C16.0067 26.635 16.9901 26.2075 17.9791 25.535C18.9446 24.8786 19.7509 24.0894 20.1475 23.4065C20.5054 22.8188 20.9143 21.7488 21.0575 20.9972C21.2007 20.2456 21.2291 19.0212 21.0878 18.2563C20.9136 17.3418 20.5181 16.4055 19.8777 15.4636C19.3258 14.7025 18.4725 13.802 17.9799 13.4827C17.4873 13.1634 16.4409 12.7385 15.6413 12.5246C14.8577 12.3343 13.6483 12.2269 12.9541 12.3201C12.2599 12.4133 11.0241 12.8747 10.215 13.356C9.28818 13.9173 8.48094 14.6038 8.05234 15.2396ZM26.5848 15.6552C26.1336 16.4096 25.7106 17.6614 25.6154 18.4836C25.5043 19.2823 25.5305 20.4352 25.6464 21.0107C25.7622 21.5862 26.2858 22.7109 26.8141 23.4879C27.3425 24.265 28.1958 25.1655 28.6884 25.4849C29.1809 25.8042 30.2434 26.2526 31.027 26.4429C31.8266 26.6568 33.1462 26.7237 34.0137 26.5816C34.9678 26.4149 36.0067 26.0185 36.7367 25.5221C37.3725 25.0898 38.2419 24.2921 38.6639 23.7986C39.101 23.226 39.572 22.0449 39.8217 20.8421C40.1317 19.3229 40.1082 18.478 39.7184 17.2968C39.45 16.4463 39.0704 15.5336 38.8943 15.2746C38.7182 15.0155 38.009 14.327 37.3168 13.7646C36.3618 12.9677 35.5847 12.6352 34.0579 12.3648C32.8476 12.1547 31.5761 12.1583 30.8828 12.3542C30.2687 12.5651 29.2072 13.0803 28.5714 13.5126C27.8414 14.0089 27.0907 14.8292 26.5848 15.6552ZM21.7872 38.6821C22.1696 39.9028 22.6056 40.9492 22.7488 41.0585C22.8994 41.1282 23.3101 41.1245 23.6567 41.0266C24.2162 40.8872 24.2143 40.6819 23.5542 38.4448C23.1785 37.0819 22.7736 35.9799 22.6709 35.9808C22.5682 35.9818 22.1821 36.0722 21.7883 36.2021C21.1271 36.4451 21.1045 36.5637 21.7872 38.6821ZM26.5694 35.6373C26.6673 35.9839 26.9931 37.0709 27.302 38.0316C27.6034 39.0319 27.9424 39.8344 28.045 39.8335C28.1637 39.8561 28.5179 39.7186 28.856 39.5576C29.4221 39.276 29.4278 39.0311 28.8336 37.0936C28.4833 35.92 28.0708 34.8575 27.9437 34.7718C27.8005 34.6625 27.4058 34.6898 27.0357 34.8038C26.5553 34.9582 26.4385 35.1409 26.5694 35.6373ZM31.4531 34.2107C31.519 34.5102 31.8053 35.5896 32.1151 36.653C32.7093 38.5905 32.7093 38.5905 33.3404 38.5058C33.6795 38.4474 34.0892 38.341 34.2069 38.2609C34.3247 38.1809 34.1091 37.0534 33.7023 35.7461C33.2879 34.4783 32.899 33.3998 32.8039 33.3612C32.7087 33.3225 32.3696 33.3809 31.9995 33.4949C31.5822 33.6408 31.4183 33.8556 31.4531 34.2107Z" fill="#2E353D"/>
</g>
<defs>
<filter id="filter0_ii_2641_1024" x="0.987427" y="-0.693035" width="45.3791" height="47.514" filterUnits="userSpaceOnUse" color-interpolation-filters="sRGB">
<feFlood flood-opacity="0" result="BackgroundImageFix"/>
<feBlend mode="normal" in="SourceGraphic" in2="BackgroundImageFix" result="shape"/>
<feColorMatrix in="SourceAlpha" type="matrix" values="0 0 0 0 0 0 0 0 0 0 0 0 0 0 0 0 0 0 127 0" result="hardAlpha"/>
<feOffset dx="1.66537" dy="-1.66537"/>
<feGaussianBlur stdDeviation="0.416342"/>
<feComposite in2="hardAlpha" operator="arithmetic" k2="-1" k3="1"/>
<feColorMatrix type="matrix" values="0 0 0 0 0 0 0 0 0 0 0 0 0 0 0 0 0 0 0.25 0"/>
<feBlend mode="normal" in2="shape" result="effect1_innerShadow_2641_1024"/>
<feColorMatrix in="SourceAlpha" type="matrix" values="0 0 0 0 0 0 0 0 0 0 0 0 0 0 0 0 0 0 127 0" result="hardAlpha"/>
<feOffset dx="0.832683" dy="0.832683"/>
<feGaussianBlur stdDeviation="1.24902"/>
<feComposite in2="hardAlpha" operator="arithmetic" k2="-1" k3="1"/>
<feColorMatrix type="matrix" values="0 0 0 0 1 0 0 0 0 1 0 0 0 0 1 0 0 0 0.25 0"/>
<feBlend mode="normal" in2="effect1_innerShadow_2641_1024" result="effect2_innerShadow_2641_1024"/>
</filter>
</defs>
</svg>
